<?xml version="1.0" standalone="no"?>
<!DOCTYPE svg PUBLIC "-//W3C//DTD SVG 20010904//EN"
 "http://www.w3.org/TR/2001/REC-SVG-20010904/DTD/svg10.dtd">
<svg version="1.0" xmlns="http://www.w3.org/2000/svg"
 width="229.000000pt" height="220.000000pt" viewBox="0 0 229.000000 220.000000"
 preserveAspectRatio="xMidYMid meet">

<g transform="translate(0.000000,220.000000) scale(0.100000,-0.100000)"
fill="#000000" stroke="none">
<path d="M640 1318 l5 -373 29 -60 c55 -110 213 -246 395 -337 l73 -37 52 23
c129 58 297 181 368 269 84 107 82 95 88 515 l5 372 -510 0 -510 0 5 -372z
m988 0 l-3 -353 -26 -55 c-51 -109 -203 -244 -371 -330 l-84 -43 -84 44 c-169
88 -318 220 -369 329 l-26 55 -3 353 -3 352 486 0 486 0 -3 -352z"/>
<path d="M730 1293 c0 -307 0 -308 25 -361 43 -93 160 -197 316 -281 l73 -40
50 26 c156 79 297 200 341 295 25 53 25 54 25 361 l0 307 -415 0 -415 0 0
-307z m730 25 l0 -173 -127 -127 -128 -128 -172 0 -173 0 0 177 0 178 122 122
123 123 177 0 178 0 0 -172z"/>
<path d="M972 1307 c-29 -29 -52 -56 -52 -60 0 -4 65 -7 145 -7 l145 0 0 -147
0 -147 55 54 55 54 0 153 0 153 -148 0 -148 0 -52 -53z"/>
<path d="M970 1070 l0 -70 65 0 65 0 0 70 0 70 -65 0 -65 0 0 -70z"/>
</g>
</svg>
